<?xml version="1.0" encoding="iso-8859-1"?>
<!-- Generator: Adobe Illustrator 19.0.0, SVG Export Plug-In . SVG Version: 6.00 Build 0)  -->
<svg version="1.1" id="Layer_1" xmlns="http://www.w3.org/2000/svg" xmlns:xlink="http://www.w3.org/1999/xlink" x="0px" y="0px"
	 viewBox="0 0 432 432" style="enable-background:new 0 0 432 432;" xml:space="preserve">
<path style="fill:#A1E8FD;" d="M52,340v16l8,8h356l12-8V124l-8-8h-20v224H52z"/>
<path style="fill:#B6EFFF;" d="M28,316v16l8,8h357.2l10.8-10.4V322V100l-8-8h-20v224H28z"/>
<g>
	<path style="fill:#64BCE0;" d="M48,342h8v10c0,4.4,3.6,8,8,8h352c4.4,0,8-3.6,8-8V128c0-4.4-3.6-8-8-8h-11.6v-8H416
		c8.8,0,16,7.2,16,16v224c0,8.8-7.2,16-16,16H64c-8.8,0-16-7.2-16-16V342L48,342z"/>
	<path style="fill:#64BCE0;" d="M24,318h8v10c0,4.4,3.6,8,8,8h352c4.4,0,8-3.6,8-8V104c0-4.4-3.6-8-8-8h-11.2v-8H392
		c8.8,0,16,7.2,16,16v224c0,8.8-7.2,16-16,16H40c-8.8,0-16-7.2-16-16V318L24,318z"/>
</g>
<polygon style="fill:#D3F5FF;" points="11.2,68 372.4,68 380,74.4 380,307.2 368.4,316 10,316 4,310.8 4,72.8 "/>
<rect x="28" y="92" style="fill:#F2FFF2;" width="328" height="200"/>
<path style="fill:#64BCE0;" d="M8,80L8,80v224c0,4.4,3.6,8,8,8h352c4.4,0,8-3.6,8-8V80c0-4.4-3.6-8-8-8H16C11.6,72,8,75.6,8,80L8,80
	z M0,80c0-8.8,7.2-16,16-16h352c8.8,0,16,7.2,16,16v224c0,8.8-7.2,16-16,16H16c-8.8,0-16-7.2-16-16V80L0,80z"/>
<g>
	<path style="fill:#E0FEE0;" d="M99.2,296L214.8,88h-38.4l-116,208H99.2L99.2,296z"/>
	<path style="fill:#E0FEE0;" d="M228.4,296L344,88h-90.4L138,296h107.6H228.4z"/>
	<path style="fill:#E0FEE0;" d="M147.6,88h8L40,296h-8L147.6,88z"/>
</g>
<path style="fill:#E9E3BF;" d="M111.6,180L111.6,180l-6,13.2c-3.6,8-11.2,6-10-2.8l1.2-14.4l6.4,3.6l-12,8.4
	c-7.2,5.2-12.4,0-7.2-7.2l8.4-11.6l3.6,6.4l-14.4,1.2c-8.8,0.8-10.8-6.4-2.8-10l13.2-6v7.2l-13.2-6c-8-3.6-6-11.2,2.8-10l14.4,1.2
	l-3.6,6.4L84,147.2c-5.2-7.2,0-12.4,7.2-7.2l11.6,8.4l-6,3.6l-1.2-14.4c-0.8-8.8,6.4-10.8,10-2.8l6,13.2h-7.2l6-13.2
	c3.6-8,11.2-6,10,2.8l-1.2,14.4l-6.4-3.6l11.6-8.4c7.2-5.2,12.4,0.4,7.6,7.6l-8.4,11.6l-3.6-6.4l14.4-1.2c8.8-0.8,10.8,6.4,2.8,10
	l-13.2,6v-7.2l13.2,6c8,3.6,6,11.2-2.8,10l-14.4-1.2l3.6-6.4l8.4,11.6c5.2,7.2-0.4,12.4-7.6,7.6l-11.6-8.4l6.4-3.6l1.2,14.4
	c0.8,8.8-6.4,10.8-10,2.8l-6-13.2H111.6z"/>
<polygon style="fill:#FCD964;" points="100,170.4 90.8,190.8 92.8,168.4 74.4,181.6 87.6,163.2 65.2,165.2 85.6,156 65.2,146.8 
	87.6,148.8 74.4,130.4 92.8,143.6 90.8,121.2 100,141.6 109.2,121.2 107.2,143.6 125.6,130.4 112.4,148.8 134.8,146.8 114.4,156 
	134.8,165.2 112.4,163.2 125.6,181.6 107.2,168.4 109.2,190.8 "/>
<path style="fill:#88D08B;" d="M138,238.8c2.4-3.6,6-3.6,8,0l19.6,33.2L228,159.2c2-4,5.6-4,7.6,0l49.2,87.6l14.8-23.6
	c2.4-3.6,6-3.6,8.4,0l44,72.8h-68H166h-54H80l15.6-25.2c2.4-3.6,6-3.6,8.4,0l7.6,12L138,238.8z"/>
<g>
	<path style="fill:#68BD6C;" d="M28,96L28,96v192c0,2.4,1.6,4,4,4h320c2.4,0,4-1.6,4-4V96c0-2.4-1.6-4-4-4H32C29.6,92,28,93.6,28,96
		L28,96z M24,96c0-4.4,3.6-8,8-8h320c4.4,0,8,3.6,8,8v192c0,4.4-3.6,8-8,8H32c-4.4,0-8-3.6-8-8V96L24,96z"/>
	<path style="fill:#68BD6C;" d="M347.2,296l-42.4-71.2c-0.8-1.2-0.8-1.2-1.6,0l-14.8,23.6c-1.6,2.4-5.2,2.4-6.8,0l-49.2-87.6
		c-0.8-1.2,0-1.2-0.8,0L169.2,274c-1.6,2.8-5.2,2.8-6.8,0l-19.6-33.2c-0.8-1.2-0.4-1.2-1.2,0l-26,44c-1.6,2.4-5.2,2.8-6.8,0l-7.6-12
		c-0.8-1.2-0.8-1.2-1.6,0L84.8,296h-2.4l-1.2-2l1.2-2H112h54h118h65.6l1.2,2l-1.2,2H347.2L347.2,296z M111.6,282.8l26-44
		c2.4-3.6,6-3.6,8,0l19.6,33.2L228,159.2c2-4,5.6-4,7.6,0l49.2,87.6l14.8-23.6c2.4-3.6,6-3.6,8.4,0l44,72.8h-68H166h-54H80
		l15.6-25.2c2.4-3.6,6-3.6,8.4,0L111.6,282.8z"/>
</g>
<path style="fill:#E9C54D;" d="M100,170.4L100,170.4l6,13.2c2,4,2.8,3.6,2.4-0.8l-1.2-14.4l11.6,8.4c3.6,2.4,4.4,1.6,2-2l-8.4-11.6
	l14.4,1.2c4.4,0.4,4.8-0.8,0.8-2.4l-10.8-6l10.8-6c4-2,3.6-2.8-0.8-2.4l-14.4,1.2l8.4-11.6c2.4-3.6,1.6-4.4-2-2l-11.6,8.4l1.2-14.4
	c0.4-4.4-0.8-4.8-2.4-0.8l-6,13.2l-6-13.2c-2-4-2.8-3.6-2.4,0.8l1.2,14.4l-11.6-8.4c-3.6-2.4-4.4-1.6-2,2l8.4,11.6l-14.4-1.2
	c-4.4-0.4-4.8,0.8-0.8,2.4l13.2,6l-13.2,6c-4,2-3.6,2.8,0.8,2.4l14.4-1.2l-8.4,11.6c-2.4,3.6-1.6,4.4,2,2l11.6-8.4l-1.2,14.4
	c-0.4,4.4,0.8,4.8,2.4,0.8L100,170.4z M97.6,185.2c-3.6,8-11.2,6-10-2.8l1.2-6.4l-5.6,4c-7.2,5.2-12.4,0-7.2-7.2l3.6-4.4l-6,0.4
	c-8.8,0.8-10.8-6.4-2.8-10L76,156l-5.2-2.4c-8-3.6-6-11.2,2.8-10l6,0.4l-3.6-4.8c-5.2-7.2,0-12.4,7.2-7.2l5.6,3.6l-1.2-6
	c-0.8-8.8,6.4-10.8,10-2.8l2.4,5.2l2.4-5.2c3.6-8,11.2-6,10,2.8l-0.4,6l4.8-3.6c7.2-5.2,12.4,0.4,7.6,7.6l-3.6,4h6
	c8.8-0.8,10.8,6.4,2.8,10L124,156l5.2,2.4c8,3.6,6,11.2-2.8,10l-6-0.8l3.6,5.2c5.2,7.2-0.4,12.4-7.6,7.6l-4-4v6.4
	c0.8,8.8-6.4,10.8-10,2.8l-2.4-6L97.6,185.2z"/>
<g>
</g>
<g>
</g>
<g>
</g>
<g>
</g>
<g>
</g>
<g>
</g>
<g>
</g>
<g>
</g>
<g>
</g>
<g>
</g>
<g>
</g>
<g>
</g>
<g>
</g>
<g>
</g>
<g>
</g>
</svg>
